<svg style="display: none;" xmlns="http://www.w3.org/2000/svg">
<!-- Иконка поиска -->
  <symbol id="search" viewBox="0 0 18 18">
      <path d="M17.6932 16.0568L14.2159 12.5795C15.2386 11.25 15.75 9.61364 15.75 7.875C15.75 3.47727 12.2727 0 7.875 0C3.47727 0 0 3.47727 0 7.875C0 12.2727 3.47727 15.75 7.875 15.75C9.61364 15.75 11.25 15.1364 12.5795 14.2159L16.0568 17.6932C16.2614 17.8977 16.4659 18 16.875 18C17.4886 18 18 17.4886 18 16.875C18 16.6705 17.8977 16.3636 17.6932 16.0568ZM2.25 7.875C2.25 4.80682 4.80682 2.25 7.875 2.25C10.9432 2.25 13.5 4.80682 13.5 7.875C13.5 10.9432 10.9432 13.5 7.875 13.5C4.80682 13.5 2.25 10.9432 2.25 7.875Z"/>
  </symbol>
<!-- Иконка корзина -->
  <symbol id="cart" viewBox="0 0 21 18">
    <path d="M20.1884 6.85716H16.6377L13.1884 0.380944C12.9855 -8.61287e-06 12.5797 -0.0952351 12.1739 0.0952412C11.7681 0.285717 11.6667 0.66667 11.8696 1.04762L15.0145 6.85716H5.7826L8.92753 1.04762C9.13043 0.66667 8.92754 0.285717 8.6232 0.0952412C8.2174 -0.0952351 7.8116 0.0952295 7.6087 0.380944L4.1594 6.85716H0.811583C0.405785 6.85716 0 7.14286 0 7.61905C0 8 0.304336 8.38094 0.811583 8.38094H1.01449L1.92753 11.2381C1.72463 11.3333 1.62317 11.5238 1.62317 11.8095C1.62317 12.1905 1.92753 12.4762 2.33332 12.4762L4.05797 18H16.942L18.6667 12.4762C19.0725 12.4762 19.3768 12.1905 19.3768 11.8095C19.3768 11.619 19.2754 11.3333 19.0725 11.2381L19.9855 8.38094H20.1884C20.5942 8.38094 21 8.09524 21 7.61905C21 7.14286 20.5942 6.85716 20.1884 6.85716ZM15.6232 16.4762H5.07247L3.85506 12.381H16.942L15.6232 16.4762ZM17.2464 10.9524H3.34782L2.53623 8.28573H18.058L17.2464 10.9524Z"/>
  </symbol>

<!-- Иконка логотипа в футере -->
  <symbol id="logo" viewBox="0 0 102 34">
    <path d="M19.2204 21.3813C19.1204 18.6962 18.7204 16.1105 18.7204 13.4255C18.7204 11.2376 19.1204 9.04976 18.3204 6.96135C18.3204 6.76246 18.4204 6.46411 18.4204 6.26522C18.6204 5.27074 15.1204 5.76798 14.6204 6.76246C14.3204 7.0608 14.1204 7.35914 14.2204 7.75694C14.2204 7.85638 14.3204 7.95583 14.3204 8.05528C13.6204 11.2376 12.7204 14.3205 11.7204 17.4034C11.3204 18.5967 10.8204 19.6907 10.4204 20.884C9.82041 19.7901 9.22041 18.6962 8.82041 17.5028C7.42041 14.1216 6.22041 10.6409 4.52041 7.35914C4.72041 5.86743 1.32041 5.96688 0.620408 7.35914C-0.179592 9.04976 -0.0795918 10.7404 0.220408 12.5304C0.520408 14.5194 0.620408 16.5083 0.620408 18.5967C0.620408 22.5746 1.02041 26.4531 1.02041 30.431C0.620408 30.8288 0.520408 31.326 0.920408 31.8233C1.12041 32.0222 1.32041 32.2211 1.52041 32.3205C2.52041 33.0167 5.12041 32.42 5.12041 31.0277C5.12041 26.9503 4.82041 22.873 4.72041 18.6962C4.72041 18.2984 4.72041 17.9006 4.72041 17.5028C4.82041 17.6023 4.82041 17.8012 4.92041 17.9006C5.52041 19.4918 6.22041 21.0829 7.12041 22.5746C8.02041 24.0664 8.42041 25.6575 8.92041 27.2487C8.72041 27.4476 8.62041 27.7459 8.72041 27.9448C8.72041 28.1437 8.82041 28.2432 9.02041 28.3426C9.62041 28.8399 10.8204 28.641 11.5204 28.3426C11.8204 28.2432 12.1204 28.0443 12.3204 27.9448C12.6204 27.7459 13.2204 27.2487 13.0204 26.7514C13.0204 26.652 12.9204 26.5526 12.9204 26.4531C13.4204 25.1603 13.6204 23.8675 13.9204 22.5746C14.2204 21.1824 14.7204 19.7901 15.2204 18.4973C15.3204 19.094 15.3204 19.6907 15.4204 20.3868C15.6204 22.9724 15.4204 25.4586 15.4204 27.9448C15.4204 28.7404 15.5204 29.536 15.6204 30.431C15.7204 30.7294 16.0204 32.2211 15.9204 32.3205C15.1204 32.8178 15.3204 33.4144 16.1204 33.6133C17.0204 33.8122 18.2204 33.5139 18.9204 32.9172C20.1204 31.8233 19.5204 30.1327 19.3204 28.7404C18.8204 26.3537 19.3204 23.768 19.2204 21.3813Z"/>
    <path d="M27.6201 22.0778C27.5201 20.0888 26.8201 18.1993 26.8201 16.2103C26.8201 13.923 27.0201 11.6357 26.6201 9.34845C26.5201 8.65232 22.5201 9.4479 22.7201 10.3429C23.0201 12.4313 22.9201 14.5197 22.9201 16.7076C22.9201 18.6965 23.4201 20.586 23.6201 22.575C23.9201 24.6634 23.5201 26.7518 23.7201 28.7408C23.8201 29.7352 24.5201 31.4258 23.8201 32.3209C23.4201 32.8181 25.3201 32.6192 25.4201 32.6192C26.2201 32.5198 27.2201 32.2214 27.7201 31.6247C28.4201 30.8292 27.9201 29.238 27.8201 28.2435C27.5201 26.2546 27.7201 24.0667 27.6201 22.0778Z"/>
    <path d="M43.9205 18.7956C41.8205 16.0111 38.0205 18.0001 35.3205 17.3039C33.9205 16.9061 33.9205 15.0166 33.9205 13.9227C33.9205 12.5304 33.8205 11.2376 33.6205 9.84534C33.5205 8.75142 33.6205 7.75694 34.3205 6.96136C34.4205 6.86191 35.2205 6.66302 35.1205 6.66302C35.5205 6.56357 35.8205 6.56357 36.2205 6.56357C37.7205 6.46412 40.8205 6.76247 40.2205 9.04976C39.9205 10.0442 43.8205 9.44755 44.1205 8.45308C45.3205 3.87848 36.8205 4.77351 34.4205 5.3702C32.2205 5.96688 29.8205 7.16026 29.6205 9.7459C29.5205 10.9393 29.9205 12.1326 29.9205 13.326C30.0205 14.7183 29.7205 16.1106 30.2205 17.4034C31.3205 20.3868 35.7205 18.9945 38.0205 19.094C41.8205 19.3923 40.7205 24.5636 40.7205 26.9504C40.7205 28.2432 41.9205 30.3316 40.9205 31.4255C40.3205 32.1216 38.9205 32.1216 38.1205 32.2211C37.3205 32.3205 35.9205 32.5194 35.4205 31.7238C34.4205 30.3316 35.5205 27.9448 35.3205 26.3537C35.2205 25.4586 31.2205 26.2542 31.4205 27.3481C31.7205 29.9338 30.0205 33.4145 33.8205 33.9117C36.2205 34.21 39.0205 33.7128 41.3205 33.0167C42.5205 32.6189 43.6205 32.1216 44.5205 31.2266C45.5205 30.3316 45.2205 28.9393 44.9205 27.7459C44.4205 24.6631 45.8205 21.2818 43.9205 18.7956Z"/>
    <path d="M61.3201 18.5965C61.2201 14.8175 60.6201 11.1379 60.6201 7.35892C60.6201 5.36997 56.6201 6.0661 56.6201 7.65727C56.6201 11.2374 57.1201 14.8175 57.3201 18.3976C57.3201 18.4971 57.3201 18.4971 57.3201 18.5965C55.4201 18.5965 53.4201 18.7954 51.4201 18.7954C51.6201 14.2208 50.8201 9.64622 51.0201 4.97218C51.0201 4.37549 47.1201 4.87273 47.1201 5.96666C46.9201 10.4418 47.7201 14.8175 47.6201 19.2927C47.5201 21.3811 47.4201 23.5689 47.3201 25.6573C47.3201 26.7512 47.5201 27.8452 47.6201 28.9391C47.7201 29.9336 48.1201 31.2264 47.8201 32.2209C47.6201 33.0164 51.4201 32.5192 51.7201 31.5247C52.2201 29.7347 51.5201 27.5468 51.3201 25.7568C51.1201 24.0661 51.3201 22.2761 51.4201 20.5855C53.4201 20.486 55.5201 20.2871 57.5201 20.5855C57.6201 21.9777 57.7201 23.37 57.8201 24.6628C57.9201 25.8562 58.0201 26.9501 58.0201 28.1435C58.0201 29.138 58.1201 30.6297 57.8201 31.6242C57.0201 33.7126 60.9201 33.5137 61.5201 32.022C62.2201 30.1325 62.0201 27.8452 61.9201 25.8562C61.7201 23.37 61.3201 20.9833 61.3201 18.5965Z"/>
    <path d="M78.22 22.9729C77.32 20.1884 75.82 17.8016 74.62 15.216C75.62 13.3265 76.62 11.3375 77.52 9.34855C78.32 7.55849 78.92 5.56954 80.62 4.27672C81.22 3.87892 81.22 3.38169 80.32 3.28224C79.42 3.18279 78.22 3.48113 77.52 3.97837C76.12 5.27119 75.12 6.66346 74.42 8.35407C73.52 10.4425 72.52 12.4314 71.52 14.4204C71.42 14.5198 71.42 14.7187 71.32 14.8182C70.82 15.1165 70.52 15.6138 70.72 16.111C69.92 17.7022 69.12 19.1939 68.22 20.6856C67.92 15.216 67.22 9.64689 67.02 4.17727C67.02 2.88445 63.02 3.68003 63.12 5.17174C63.32 12.0336 64.32 18.7961 64.42 25.658C64.42 25.658 64.42 25.658 64.42 25.7574C64.12 26.0558 64.22 26.2547 64.52 26.3541C64.52 28.1442 64.42 29.8348 64.32 31.6248C63.82 32.321 64.82 32.7188 65.42 32.7188H65.52C66.22 32.7188 68.12 32.4204 68.22 31.3265C68.42 29.2381 68.52 27.1497 68.42 25.0613C70.02 23.3707 71.32 21.4812 72.52 19.4922C73.32 20.9839 74.02 22.4756 74.52 24.0668C75.42 26.7519 76.82 29.3375 77.62 32.0226C78.12 33.8127 82.12 32.7188 81.52 31.0282C80.52 28.2436 79.12 25.7574 78.22 22.9729Z"/>
    <path d="M101.721 18.3983C101.521 17.6027 100.321 17.6027 99.4207 17.6027C99.4207 17.3043 99.4207 16.9066 99.4207 16.6082C99.3207 13.9231 99.2207 11.238 99.0207 8.6524C98.8207 6.1662 97.4207 5.37062 95.0207 5.47007C92.6207 5.56952 89.8207 5.96731 87.5207 6.86234C84.9207 7.85682 83.4207 9.74632 82.9207 12.5309C82.4207 15.5143 83.1207 18.6966 83.3207 21.68C83.5207 25.1607 83.4207 28.6414 83.4207 32.1221C83.4207 32.7187 87.3207 32.1221 87.3207 31.1276C87.3207 28.343 87.3207 25.5585 87.3207 22.8734C87.3207 22.0778 87.2207 21.2823 87.2207 20.4867C88.6207 19.89 90.9207 20.4867 92.3207 20.5861C93.4207 20.6856 94.5207 20.3872 95.5207 20.2878C95.5207 22.5751 95.6207 24.8624 95.7207 27.1497C95.7207 28.343 96.2207 30.6303 95.3207 31.6248C94.9207 32.1221 96.8207 31.9232 96.9207 31.9232C97.7207 31.8237 98.7207 31.5254 99.2207 30.9287C100.121 29.8348 99.7207 27.1497 99.6207 25.8569C99.5207 23.9673 99.5207 22.0778 99.5207 20.1883C100.621 19.9894 101.921 19.2933 101.721 18.3983ZM87.1207 18.2988C87.0207 17.1055 86.9207 15.8126 86.8207 14.6193C86.6207 12.332 86.9207 9.05019 89.1207 7.65792C89.7207 7.26013 90.8207 7.35958 91.5207 7.26013C92.5207 7.06123 93.5207 6.86234 94.3207 7.45902C95.5207 8.25461 95.2207 11.1386 95.2207 12.332C95.2207 14.3209 95.4207 16.3099 95.5207 18.2988C94.9207 18.3983 94.4207 18.3983 93.8207 18.3983C91.5207 18.1994 89.2207 17.8016 87.1207 18.2988Z"/>
    <path d="M24.2204 6.663C24.7204 6.56355 25.2204 6.4641 25.7204 6.16576C25.8204 6.06631 25.9204 5.96686 25.9204 5.96686C26.4204 5.66852 26.9204 5.17128 26.6204 4.57459C26.1204 3.48067 26.2204 2.38675 26.2204 1.19337C26.2204 0.198895 25.2204 0 24.4204 0C23.7204 0.0994477 22.2204 0.596686 22.2204 1.49172C22.2204 2.48619 22.1204 3.48067 22.3204 4.47515C22.3204 4.57459 22.2204 4.67404 22.2204 4.87294C22.1204 5.07183 22.2204 5.27073 22.3204 5.46962V5.56907C22.3204 5.66852 22.3204 5.76797 22.3204 5.86742C22.4204 6.06631 22.5204 6.26521 22.7204 6.36465C23.3204 6.663 23.8204 6.663 24.2204 6.663Z"/>
  </symbol>
<!-- Иконка вконтакте -->
  <symbol id="vk" viewBox="0 0 28 17">
    <path d="M0.741211 2.33876C0.741211 1.48373 1.25631 1.02268 2.28652 0.955621L6.25636 0.980769C6.52279 0.980769 6.70042 1.10651 6.78923 1.35799C7.19776 2.61538 7.65513 3.70094 8.16135 4.61465C8.66758 5.52835 9.32922 6.58038 10.1463 7.77071C10.2173 7.9216 10.3328 7.99704 10.4926 7.99704C10.617 7.99704 10.7147 7.93836 10.7857 7.82101L10.8656 7.54438L10.8923 3.19379C10.8923 2.89201 10.8168 2.69083 10.6658 2.59024C10.5148 2.48965 10.2351 2.4142 9.82656 2.36391C9.50684 2.31361 9.34698 2.12919 9.34698 1.81065C9.34698 1.74359 9.35586 1.69329 9.37362 1.65976C9.74663 0.57002 10.8124 0.0251479 12.5708 0.0251479L14.0628 0C14.7378 0 15.2973 0.15927 15.7414 0.477811C16.1854 0.796351 16.4074 1.29931 16.4074 1.98669V7.69527C16.5318 7.77909 16.6472 7.82101 16.7538 7.82101C17.0202 7.82101 17.2511 7.67012 17.4465 7.36834C19.4004 4.78649 20.4572 3.05966 20.6171 2.18787C20.6171 2.1711 20.6348 2.12919 20.6704 2.06213C20.7947 1.81065 20.999 1.5927 21.2832 1.40828C21.5673 1.22387 21.816 1.09813 22.0292 1.03107C22.1002 0.997535 22.1801 0.980769 22.269 0.980769H26.3987L26.6651 1.00592C27.0203 1.00592 27.2956 1.16519 27.491 1.48373C27.5621 1.58432 27.6109 1.69329 27.6376 1.81065C27.6642 1.92801 27.682 2.04536 27.6909 2.16272C27.6997 2.28008 27.7042 2.34714 27.7042 2.36391V2.53994C27.5798 3.22732 27.2646 3.9608 26.7583 4.74038C26.2521 5.51997 25.6082 6.36243 24.8267 7.26775C24.0452 8.17308 23.5567 8.76825 23.3613 9.05326C23.2015 9.25444 23.1215 9.43886 23.1215 9.60651C23.1215 9.74063 23.1926 9.89152 23.3347 10.0592L27.2246 14.6864C27.4377 14.9546 27.5443 15.248 27.5443 15.5666C27.5443 15.9522 27.3845 16.2707 27.0647 16.5222C26.745 16.7737 26.3631 16.9162 25.9191 16.9497L25.4661 16.9749H21.4164C21.3986 16.9749 21.3631 16.979 21.3098 16.9874C21.2565 16.9958 21.221 17 21.2032 17C20.8125 17 20.4483 16.8407 20.1108 16.5222C19.9865 16.3881 19.1517 15.3989 17.6064 13.5547C17.5176 13.4374 17.3932 13.3284 17.2334 13.2278C17.1623 13.4961 17.0691 13.8817 16.9536 14.3846C16.8382 14.8876 16.7538 15.248 16.7005 15.466L16.6206 15.8935C16.443 16.4803 16.07 16.8323 15.5016 16.9497L15.1286 16.9749H12.5175C11.0433 16.9749 9.57345 16.3378 8.10807 15.0636C6.64269 13.7894 5.32385 12.1423 4.15155 10.122C2.97924 8.10182 1.88687 5.75049 0.874427 3.06805C0.785616 2.8501 0.741211 2.607 0.741211 2.33876ZM16.7538 8.85207C16.3808 8.85207 16.0433 8.75567 15.7414 8.56287C15.4394 8.37007 15.2884 8.10602 15.2884 7.77071V1.98669C15.2884 1.65138 15.1996 1.41248 15.022 1.26997C14.8444 1.12747 14.5335 1.05621 14.0895 1.05621L12.5708 1.10651C11.807 1.10651 11.2298 1.23225 10.839 1.48373C11.6205 1.8358 12.0113 2.40582 12.0113 3.19379V7.61982C11.9758 8.03895 11.7982 8.38683 11.4784 8.66346C11.1587 8.94009 10.8035 9.0784 10.4127 9.0784C9.87984 9.0784 9.47131 8.83531 9.18712 8.34911C7.80167 6.37081 6.77147 4.4931 6.0965 2.71598L5.85671 2.06213L2.31316 2.03698C2.08225 2.03698 1.95348 2.04956 1.92684 2.0747C1.90019 2.09985 1.88687 2.1711 1.88687 2.28846C1.88687 2.43935 1.90463 2.59862 1.94016 2.76627L2.49967 4.17456C3.99169 7.81262 5.61248 10.6795 7.36206 12.7751C9.11163 14.8708 10.8301 15.9186 12.5175 15.9186H15.1818C15.2884 15.9186 15.3684 15.8893 15.4216 15.8306C15.4749 15.7719 15.5193 15.6588 15.5549 15.4911L15.6081 15.2396L16.1144 13.0266C16.2565 12.7249 16.3808 12.5237 16.4874 12.4231C16.6828 12.2387 16.9137 12.1465 17.1801 12.1465C17.6064 12.1465 18.0416 12.3895 18.4856 12.8757L20.7503 15.5917C20.8924 15.8097 21.0434 15.9186 21.2032 15.9186H25.5994C26.1322 15.9186 26.3987 15.7929 26.3987 15.5414C26.3987 15.4576 26.372 15.3738 26.3187 15.2899L22.4555 10.7382C22.1535 10.3861 22.0025 10.0089 22.0025 9.60651C22.0025 9.20414 22.1446 8.81854 22.4288 8.4497C22.6597 8.1144 23.1082 7.55695 23.7743 6.77737C24.4404 5.99778 25.0221 5.26849 25.5194 4.5895C26.0168 3.9105 26.3454 3.29438 26.5052 2.74112L26.5852 2.4142C26.5674 2.38067 26.5585 2.32618 26.5585 2.25074C26.5585 2.1753 26.5496 2.11243 26.5319 2.06213H22.3489C22.0825 2.16272 21.8693 2.31361 21.7094 2.51479L21.5496 2.9926C21.1055 4.14941 19.9421 5.93491 18.0593 8.34911C17.6863 8.68442 17.2511 8.85207 16.7538 8.85207Z"/>
  </symbol>
<!-- Иконка ютуб -->
  <symbol id="youtube" viewBox="0 0 24 20">
    <path d="M15.8509 9.29275L10.6145 5.80184C10.5159 5.73691 10.4016 5.69985 10.2837 5.69459C10.1657 5.68934 10.0486 5.71608 9.94459 5.77198C9.84061 5.82789 9.75368 5.91087 9.69302 6.01215C9.63236 6.11343 9.60022 6.22924 9.6 6.34729V13.3291C9.60013 13.4481 9.6327 13.5648 9.69421 13.6667C9.75572 13.7686 9.84384 13.8518 9.94909 13.9073C10.0524 13.9631 10.1691 13.9895 10.2864 13.9837C10.4037 13.978 10.5172 13.9402 10.6145 13.8746L15.8509 10.3837C15.9409 10.3239 16.0148 10.2429 16.0658 10.1477C16.1169 10.0526 16.1436 9.94621 16.1436 9.8382C16.1436 9.73019 16.1169 9.62385 16.0658 9.52868C16.0148 9.43351 15.9409 9.35245 15.8509 9.29275ZM10.9091 12.1073V7.56911L14.3127 9.8382L10.9091 12.1073ZM23.3891 3.54366C23.2942 3.17547 23.1131 2.83511 22.8609 2.55061C22.6086 2.26611 22.2924 2.04561 21.9382 1.90729C18.2182 0.478201 12.2509 0.500019 12 0.500019C11.7491 0.500019 5.78182 0.478201 2.06182 1.90729C1.70764 2.04561 1.3914 2.26611 1.13914 2.55061C0.886889 2.83511 0.705838 3.17547 0.610909 3.54366C0.327273 4.61275 0 6.57638 0 9.8382C0 13.1 0.327273 15.0637 0.610909 16.1327C0.705838 16.5009 0.886889 16.8413 1.13914 17.1258C1.3914 17.4103 1.70764 17.6308 2.06182 17.7691C5.78182 19.1982 11.7491 19.1764 12 19.1764H12.0764C12.8291 19.1764 18.3927 19.1327 21.9382 17.7691C22.2924 17.6308 22.6086 17.4103 22.8609 17.1258C23.1131 16.8413 23.2942 16.5009 23.3891 16.1327C23.6727 15.0637 24 13.1 24 9.8382C24 6.57638 23.6727 4.61275 23.3891 3.54366ZM22.1236 15.8055C22.0807 15.972 21.999 16.1259 21.8853 16.2548C21.7715 16.3838 21.6289 16.484 21.4691 16.5473C17.9782 17.8891 12.0655 17.8673 12 17.8673C11.9345 17.8673 6.02182 17.8891 2.53091 16.5473C2.37107 16.484 2.22846 16.3838 2.11471 16.2548C2.00096 16.1259 1.91929 15.972 1.87636 15.8055C1.61455 14.8018 1.30909 12.9582 1.30909 9.8382C1.30909 6.7182 1.61455 4.87457 1.87636 3.87093C1.91929 3.70445 2.00096 3.55047 2.11471 3.42156C2.22846 3.29264 2.37107 3.19243 2.53091 3.12911C6.02182 1.78729 11.9345 1.80911 12 1.80911C12.0655 1.80911 17.9782 1.78729 21.4691 3.12911C21.6289 3.19243 21.7715 3.29264 21.8853 3.42156C21.999 3.55047 22.0807 3.70445 22.1236 3.87093C22.3855 4.87457 22.6909 6.7182 22.6909 9.8382C22.6909 12.9582 22.3855 14.8018 22.1236 15.8055Z"/>
  </symbol>
<!-- Иконка телеграм -->
  <symbol id="tg" viewBox="0 0 20 18">
    <path fill-rule="evenodd" clip-rule="evenodd" d="M19.4608 0.652905C19.6393 0.802216 19.7255 1.0349 19.6872 1.26448L17.0611 17.0214C17.0244 17.2411 16.8789 17.4273 16.6745 17.5159C16.47 17.6045 16.2346 17.5833 16.0493 17.4597L8.17082 12.2074C8.01771 12.1054 7.91447 11.9437 7.88624 11.7619C7.858 11.58 7.90738 11.3947 8.02233 11.251L10.633 7.98773L6.27303 10.8944C6.077 11.025 5.82597 11.0407 5.61524 10.9353L0.362931 8.30915C0.127693 8.19153 -0.0146529 7.94488 0.00119976 7.68235C0.0170525 7.41983 0.188044 7.1921 0.435726 7.10364L18.8188 0.538258C19.038 0.459976 19.2822 0.503595 19.4608 0.652905ZM2.32626 7.82275L5.86168 9.59046L13.4231 4.5495C13.6925 4.36994 14.0525 4.41349 14.2712 4.6521C14.49 4.8907 14.5022 5.25314 14.3 5.50591L9.49502 11.5121L15.9328 15.8039L18.2083 2.15058L2.32626 7.82275Z"/>
  </symbol>
<!-- Иконка логотип академии -->
  <symbol id="academy-logo" viewBox="0 0 27 35">
    <path d="M13.6 0H13.5L0 1.4V26.1L13.5 34.1L26.9 26.1V1.4L13.6 0ZM25 12.1L13.5 5.3V5.2H13.4L13.3 5.1V5.2L1.9 12.1V3.1L13.4 1.9L25 3.1V12.1ZM13.4 6.8L24.9 13.5L20.4 16.1L13.3 11.9V13.3L19.2 16.8L18.3 17.3L13.3 14.3V15.7L17.1 18L16.3 18.5L13.3 16.7V18.1L15.2 19.2L13.4 20.3L2 13.6L13.4 6.8ZM1.9 15.1L13.3 21.9V22.9L5.4 18.2V19.6L13.4 24.4V25.5L5.4 20.8V22.2L13.4 27L21.5 22.1V16.9L24.9 14.9V24.9L13.4 31.8L1.9 25V15.1Z"/>
  </symbol>
<!-- Иконка телефона -->
  <symbol id="tel" viewBox="0 0 25 24">
    <g>
      <path d="M17.4395 24C17.0363 24 16.7339 24 16.3306 24C11.3911 23.4074 7.7621 21.1358 5.14113 18.2717C2.52016 15.4075 0.403226 11.7532 0 6.7162C0 6.22237 0 5.82731 0 5.33349C0.100806 4.44461 0.504032 3.85202 1.10887 3.25943C1.71371 2.56808 2.72177 1.77796 3.62903 1.6792C4.33468 1.6792 5.44355 2.17302 5.84677 2.76561C6.25 3.25943 6.45161 4.34584 6.65323 5.13596C6.85484 6.02484 7.25806 7.11125 7.15726 7.90137C6.95565 9.08655 5.34274 9.58037 4.93952 10.4693C6.55242 14.1235 9.07258 16.889 12.5 18.6667C13.3065 18.1729 14.1129 16.7902 15.3226 16.7902C15.7258 16.7902 16.3306 16.9877 16.7339 17.0865C17.2379 17.1852 17.6411 17.3828 18.0444 17.5803C18.75 17.8766 20.0605 18.1729 20.4637 18.7655C20.8669 19.3581 21.1694 20.3457 21.0685 20.9383C20.7661 22.2222 18.6492 23.6049 17.4395 24Z"/>
      <path d="M12.6008 1.48147C18.5484 1.48147 23.4879 6.22217 23.4879 12.1481H25C25 5.43205 19.4556 0 12.6008 0V1.48147Z"/>
      <path d="M12.6008 9.18506V10.7653C13.4073 10.7653 14.0121 11.3579 14.0121 12.148H15.625C15.625 10.5678 14.3145 9.18506 12.6008 9.18506Z"/>
      <path d="M12.6008 6.12356C15.9274 6.12356 18.75 8.79021 18.75 12.1482H20.3629C20.3629 8.00009 16.9355 4.64209 12.7016 4.64209V6.12356H12.6008Z"/>
    </g>
  </symbol>
<!-- Иконка почты -->
  <symbol id="post" viewBox="0 0 32 21">
    <path d="M28 0H4C1.8 0 0 1.8 0 4V17C0 19.2 1.8 21 4 21H28C30.2 21 32 19.2 32 17V4C32 1.8 30.2 0 28 0ZM2 5.3L9 10.6L2 15.9V5.3ZM30 17C30 18.1 29.1 19 28 19H4C2.9 19 2 18.1 2 17L9.8 11.1L14.2 14.4C14.7 14.8 15.4 15 16 15C16.6 15 17.3 14.8 17.8 14.4L22.2 11.1L30 17ZM30 15.8L23 10.5L30 5.2V15.8ZM17.2 13.6C16.8 13.9 16.4 14 16 14C15.6 14 15.1 13.9 14.8 13.6L10.7 10.5L9.9 9.9L2 4C2 2.9 2.9 2 4 2H28C29.1 2 30 2.9 30 4L17.2 13.6Z"/>
  </symbol>
</svg>
